<?xml version="1.0" standalone="no"?>
<svg version="1.1" preserveAspectRatio="none" viewBox="0 0 24 24" class="ng-element" data-id="c818ea722232d6e0fe568bf47e159064" style="fill: rgb(255, 255, 255); width: 32px; height: 32px;" xmlns="http://www.w3.org/2000/svg"><g><path xmlns:default="http://www.w3.org/2000/svg" id="code-fork" d="M9.39,18.7C9,19.09,8.36,19.09,7.97,18.7c-0.39-0.39-0.39-1.02-0.01-1.41c0.39-0.39,1.02-0.39,1.41-0.01  c0.19,0.19,0.3,0.45,0.3,0.71C9.67,18.26,9.57,18.51,9.39,18.7z M9.39,6.7C8.93,7.01,8.31,6.89,8,6.43C7.77,6.09,7.77,5.64,8.01,5.3  C8.46,4.98,9.08,5.09,9.4,5.55C9.64,5.9,9.64,6.36,9.39,6.7L9.39,6.7z M16.01,8C15.62,8.39,14.98,8.39,14.59,8s-0.39-1.02-0.01-1.41  C14.97,6.2,15.61,6.2,16,6.58c0.19,0.19,0.29,0.44,0.3,0.7C16.3,7.55,16.19,7.81,16.01,8z M17.3,7.29c0-1.1-0.9-2-2-2  c-1.1,0-2,0.9-2,2c0,0.71,0.38,1.37,1,1.73c0.01,0.34-0.02,0.67-0.09,1c-0.05,0.26-0.15,0.5-0.29,0.72  c-0.12,0.19-0.26,0.37-0.42,0.53c-0.18,0.17-0.39,0.31-0.61,0.41c-0.27,0.13-0.51,0.23-0.73,0.32s-0.52,0.19-0.91,0.31  c-0.55,0.16-1.08,0.36-1.6,0.59V7.73c0.62-0.36,1-1.02,1-1.73c0-1.1-0.9-2-2-2s-2,0.9-2,2c0,0.71,0.38,1.37,1,1.73v8.54  C6.69,16.82,6.36,18.04,6.91,19s1.77,1.29,2.73,0.73c0.15-0.09,0.3-0.2,0.42-0.33c0.39-0.37,0.61-0.88,0.61-1.41  c0-0.71-0.38-1.37-1-1.73V16c-0.02-0.38,0.14-0.75,0.43-1c0.55-0.33,1.14-0.58,1.76-0.74c0.74-0.22,1.46-0.52,2.14-0.89  c1.55-0.87,2.46-2.54,2.35-4.31c0.62-0.36,1-1.02,1-1.73l0,0L17.3,7.29z" style="fill: rgb(255, 255, 255);"/></g></svg>