<?xml version="1.0" standalone="no"?>
<svg version="1.1" preserveAspectRatio="none" viewBox="0 0 24 24" class="ng-element" data-id="8e1b24c9bc798df7bd435da3956dabfe" style="fill: rgb(238, 238, 238); width: 30px; height: 30px;" xmlns="http://www.w3.org/2000/svg"><g><path xmlns:default="http://www.w3.org/2000/svg" id="cloud-download" d="M15.33,12.98c0,0.09-0.04,0.18-0.1,0.25l-3.66,3.65c-0.13,0.13-0.35,0.13-0.48,0l-3.66-3.66  c-0.06-0.06-0.09-0.15-0.09-0.24c0.01-0.18,0.15-0.32,0.33-0.33H10V8.98c0.01-0.18,0.15-0.32,0.33-0.33h2  c0.18,0.01,0.32,0.15,0.33,0.33v3.66H15c0.18-0.01,0.32,0.13,0.33,0.31c0,0.01,0,0.01,0,0.02l0,0V12.98z M22,15.31  c0.01-0.9-0.3-1.78-0.87-2.48c-0.56-0.71-1.34-1.21-2.22-1.41c0.68-1.05,0.54-2.44-0.35-3.32c-0.99-0.99-2.57-1.04-3.62-0.12  C14.12,5.97,12.17,4.65,10,4.65C8.58,4.63,7.22,5.19,6.23,6.21C5.21,7.2,4.65,8.56,4.67,9.98c0,0.09,0,0.24,0,0.45  C3.04,11.2,2,12.84,2,14.65c-0.03,1.25,0.47,2.46,1.37,3.33c0.86,0.89,2.06,1.39,3.3,1.37H18c2.21,0,4-1.79,4-4l0,0V15.31z" style="fill: rgb(238, 238, 238);"/></g></svg>