<?xml version="1.0" standalone="no"?>
<svg version="1.1" preserveAspectRatio="none" viewBox="0 0 24 24" class="ng-element" data-id="cde67fb4584612d7e5d6bac7f6432b55" style="fill: rgb(238, 238, 238); width: 30px; height: 30px;" xmlns="http://www.w3.org/2000/svg"><g><path xmlns:default="http://www.w3.org/2000/svg" id="check-square-o" d="M18,13c0.01-0.14-0.08-0.26-0.21-0.3c-0.04-0.01-0.08-0.01-0.12,0c-0.09,0-0.18,0.04-0.24,0.1  l-0.67,0.67c-0.06,0.06-0.09,0.14-0.09,0.23v2.64C16.66,17.26,15.92,18,15,18H6.34c-0.92,0-1.67-0.75-1.67-1.67l0,0V7.67  C4.67,6.75,5.42,6,6.34,6l0,0H15c0.16,0,0.32,0.02,0.47,0.06h0.09c0.09,0.01,0.18-0.01,0.25-0.06l0.51-0.51  c0.08-0.08,0.11-0.19,0.09-0.3c-0.02-0.11-0.09-0.2-0.19-0.24c-0.38-0.18-0.8-0.28-1.22-0.28H6.34c-0.8-0.01-1.57,0.31-2.12,0.88  C3.65,6.1,3.33,6.87,3.34,7.67v8.66c-0.01,0.8,0.31,1.57,0.88,2.12c0.55,0.57,1.32,0.89,2.12,0.88H15c1.66,0,3-1.34,3-3V13L18,13z   M20.41,7.91c0.33-0.32,0.34-0.85,0.02-1.17c-0.01-0.01-0.01-0.01-0.02-0.02L19.26,5.6c-0.32-0.33-0.85-0.34-1.17-0.02  c-0.01,0.01-0.01,0.01-0.02,0.02l-6.74,6.74L8.6,9.59C8.28,9.26,7.75,9.25,7.43,9.57C7.42,9.58,7.41,9.58,7.41,9.59l-1.14,1.15  c-0.33,0.32-0.34,0.85-0.02,1.17c0.01,0.01,0.01,0.01,0.02,0.02l4.48,4.48c0.32,0.33,0.85,0.34,1.17,0.02  c0.01-0.01,0.01-0.01,0.02-0.02l8.47-8.47l0,0V7.91z" style="fill: rgb(238, 238, 238);"/></g></svg>