<?xml version="1.0" standalone="no"?>
<svg version="1.1" preserveAspectRatio="none" viewBox="0 0 24 24" class="ng-element" data-id="23c011a684911eeeb8dc14e59837b275" style="fill: rgb(238, 238, 238); width: 30px; height: 30px;" xmlns="http://www.w3.org/2000/svg"><g><path xmlns:default="http://www.w3.org/2000/svg" id="pencil" d="M7.89,18.55H6.78v-1.33H5.45v-1.11l0.95-0.95l2.45,2.45L7.9,18.56l0,0L7.89,18.55z M13.26,9.07l-5.64,5.64  c-0.05,0.05-0.11,0.07-0.18,0.07c-0.11,0.02-0.21-0.06-0.23-0.16c0-0.02,0-0.04,0-0.07c0-0.07,0.02-0.13,0.07-0.18l5.64-5.64  c0.05-0.05,0.11-0.07,0.18-0.07c0.11-0.02,0.21,0.06,0.23,0.16c0,0.02,0,0.04,0,0.07C13.33,8.96,13.31,9.02,13.26,9.07z M4.11,15.56  v4.33h4.33l8.66-8.66l-4.32-4.34L4.11,15.56z M19.89,7.89c0-0.36-0.14-0.7-0.39-0.95l-2.45-2.43c-0.25-0.26-0.59-0.4-0.95-0.4  c-0.36-0.01-0.7,0.14-0.94,0.4l-1.72,1.72l4.33,4.33l1.73-1.73C19.75,8.58,19.9,8.24,19.89,7.89L19.89,7.89z" style="fill: rgb(238, 238, 238);"/></g></svg>