<?xml version="1.0" standalone="no"?>
<svg version="1.1" preserveAspectRatio="none" viewBox="0 0 24 24" class="ng-element" data-id="b2f6274a5d8d736baf5a7abe6691a54f" style="fill: rgb(238, 238, 238); width: 30px; height: 30px;" xmlns="http://www.w3.org/2000/svg"><g><path xmlns:default="http://www.w3.org/2000/svg" id="plus" d="M19.33,11c0-0.55-0.45-1-1-1H14V5.67c0-0.55-0.45-1-1-1h-2c-0.55,0-1,0.45-1,1V10H5.67c-0.55,0-1,0.45-1,1v2  c0,0.55,0.45,1,1,1H10v4.33c0,0.55,0.45,1,1,1h2c0.55,0,1-0.45,1-1V14h4.33c0.55,0,1-0.45,1-1V11L19.33,11z" style="fill: rgb(238, 238, 238);"/></g></svg>