<?xml version="1.0" standalone="no"?>
<svg version="1.1" preserveAspectRatio="none" viewBox="0 0 24 24" class="ng-element" data-id="bc59236c10fb6773afe1ffd3693e84e6" style="fill: rgb(238, 238, 238); width: 30px; height: 30px;" xmlns="http://www.w3.org/2000/svg"><g><path xmlns:default="http://www.w3.org/2000/svg" id="bold" d="M10.43,18.51c-0.07-0.22-0.11-0.46-0.12-0.69c0-0.32,0-0.61,0-0.87c0-0.26,0-0.59,0-1c0-0.41,0-0.65,0-0.7  c0-0.36,0-0.91,0-1.65s0-1.29,0-1.66c0.34-0.09,0.7-0.12,1.05-0.1h1c0.29,0.02,0.58,0.06,0.87,0.11c0.29,0.05,0.57,0.13,0.84,0.26  c0.25,0.13,0.49,0.29,0.7,0.48c0.25,0.22,0.47,0.48,0.64,0.77c0.31,0.57,0.46,1.22,0.43,1.87c0,2.33-1.3,3.49-3.91,3.49  c-0.5-0.01-1-0.12-1.46-0.33l0,0L10.43,18.51z M10.28,10.74c0-0.16,0-0.4,0-0.72c0-0.18,0-0.45,0-0.82c0-0.37,0-0.64,0-0.83  c0-0.35,0-0.88,0-1.58s0-1.22,0-1.57c0.45-0.08,0.9-0.13,1.35-0.14c0.43,0,0.87,0.05,1.29,0.15c0.37,0.1,0.73,0.25,1.06,0.45  c0.35,0.2,0.63,0.5,0.82,0.85c0.21,0.39,0.31,0.83,0.3,1.28c0.01,0.51-0.08,1.01-0.27,1.48c-0.16,0.38-0.43,0.71-0.78,0.93  c-0.35,0.22-0.74,0.38-1.15,0.46c-0.49,0.1-0.99,0.15-1.49,0.14c-0.38,0.01-0.76-0.02-1.13-0.07l0,0V10.74z M4.65,20l2.41-0.12  c1.39-0.07,2.46-0.11,3.2-0.11h1.37H13c0.61,0,1.23-0.05,1.83-0.15c0.58-0.1,1.16-0.26,1.7-0.5c0.52-0.2,1.01-0.49,1.45-0.84  c0.43-0.37,0.77-0.84,1-1.36c0.25-0.59,0.37-1.23,0.36-1.87c0.02-0.97-0.36-1.91-1.07-2.58c-0.74-0.71-1.67-1.19-2.67-1.4l0.87-0.42  c0.26-0.14,0.52-0.3,0.76-0.47c0.25-0.17,0.48-0.37,0.67-0.6c0.17-0.23,0.31-0.48,0.41-0.75c0.12-0.32,0.18-0.66,0.17-1  c0.01-0.49-0.09-0.98-0.29-1.43c-0.18-0.41-0.44-0.78-0.77-1.09c-0.33-0.3-0.71-0.55-1.12-0.74c-0.42-0.19-0.86-0.33-1.32-0.42  C14.5,4.05,14.01,4,13.51,4h-1.42c-0.91,0-2.2,0.03-3.88,0.1L4.67,4.22v0.86h0.32h0.5l0.56,0.16C6.21,5.26,6.36,5.3,6.51,5.35  C6.61,5.37,6.69,5.42,6.74,5.5C6.9,5.83,6.98,9.39,6.98,16.17v0.68c0,0.1,0,0.22,0,0.36c0.01,0.13,0.01,0.26,0,0.39l-0.06,0.34  c-0.02,0.12-0.05,0.24-0.09,0.35c-0.04,0.1-0.08,0.19-0.13,0.28c-0.36,0.13-0.72,0.23-1.1,0.28L4.67,19v1l0,0H4.65z" style="fill: rgb(238, 238, 238);"/></g></svg>