<?xml version="1.0" standalone="no"?>
<svg version="1.1" preserveAspectRatio="none" viewBox="0 0 24 24" class="ng-element" data-id="eb1ed500af95d686ca66d2470e61236e" style="fill: rgb(238, 238, 238); width: 30px; height: 30px;" xmlns="http://www.w3.org/2000/svg"><g><path xmlns:default="http://www.w3.org/2000/svg" id="info" d="M15.34,17.33c-0.01-0.37-0.3-0.66-0.67-0.67h-0.66v-6C13.99,10.29,13.7,10,13.34,10h-4  C8.97,10,8.67,10.3,8.66,10.67V12c0.01,0.37,0.3,0.66,0.67,0.67h0.67v4H9.34c-0.37,0.01-0.66,0.3-0.67,0.67v1.33  c0.01,0.37,0.3,0.66,0.67,0.67h5.33c0.37-0.01,0.66-0.3,0.67-0.67V17.33L15.34,17.33z M13.81,4.87c-0.12-0.13-0.29-0.2-0.47-0.2  h-2.66c-0.37,0.01-0.66,0.3-0.67,0.67v2c0.01,0.37,0.3,0.66,0.67,0.67h2.67C13.71,7.99,14,7.7,14.01,7.34v-2  C14.01,5.16,13.93,4.99,13.81,4.87z" style="fill: rgb(238, 238, 238);"/></g></svg>