<?xml version="1.0" standalone="no"?>
<svg version="1.1" preserveAspectRatio="none" viewBox="0 0 24 24" class="ng-element" data-id="47fc1a4cd39dbd8b67149bc4a902be16" style="fill: rgb(238, 238, 238); width: 30px; height: 30px;" xmlns="http://www.w3.org/2000/svg"><g><path xmlns:default="http://www.w3.org/2000/svg" id="book" d="M20.43,7.65c-0.16-0.2-0.37-0.36-0.61-0.45c0.02,0.2,0,0.4-0.05,0.59l-3.13,10.28c-0.06,0.18-0.19,0.34-0.36,0.43  c-0.18,0.1-0.38,0.16-0.58,0.16H6.08c-0.61,0.12-1.22-0.18-1.5-0.73c-0.08-0.14-0.08-0.31,0-0.45c0.11-0.13,0.28-0.19,0.45-0.15h9  c0.48,0.06,0.96-0.06,1.35-0.33c0.36-0.47,0.61-1.02,0.74-1.6l2.85-9.43c0.16-0.45,0.09-0.96-0.19-1.35  C18.52,4.22,18.08,3.98,17.6,4H9.68C9.5,4.01,9.33,4.04,9.15,4.09l0,0C8.99,4.04,8.83,4.01,8.66,4C8.53,4,8.4,4.04,8.29,4.12  c-0.1,0.07-0.19,0.15-0.26,0.25c-0.08,0.1-0.15,0.21-0.2,0.33C7.77,4.83,7.71,4.95,7.66,5.07L7.5,5.43C7.45,5.54,7.4,5.64,7.33,5.75  L7.14,6L6.95,6.24C6.91,6.29,6.88,6.36,6.86,6.43c-0.02,0.09-0.02,0.19,0,0.28c0.01,0.09,0.01,0.18,0,0.27  c-0.05,0.34-0.15,0.68-0.29,1c-0.11,0.31-0.26,0.6-0.44,0.88L5.9,9.09c-0.1,0.09-0.18,0.2-0.23,0.32c-0.03,0.09-0.03,0.2,0,0.29  c0.01,0.11,0.01,0.22,0,0.33c-0.05,0.32-0.14,0.64-0.26,0.94c-0.12,0.35-0.26,0.68-0.44,1c-0.05,0.09-0.11,0.17-0.18,0.24  c-0.08,0.08-0.14,0.18-0.18,0.29c-0.02,0.1-0.02,0.19,0,0.29c0.02,0.1,0.02,0.21,0,0.31c-0.07,0.34-0.18,0.68-0.31,1  c-0.13,0.35-0.29,0.68-0.47,1c-0.05,0.08-0.11,0.16-0.17,0.24c-0.06,0.08-0.12,0.16-0.17,0.24c-0.04,0.07-0.07,0.14-0.08,0.22  c-0.01,0.07-0.01,0.13,0,0.2c0.01,0.07,0.01,0.15,0,0.22c0,0.1,0,0.23,0,0.39s0,0.25,0,0.28c-0.16,0.43-0.16,0.89,0,1.32  c0.19,0.55,0.54,1.02,1,1.37c0.48,0.32,1.05,0.47,1.62,0.42h9.61c0.46,0,0.92-0.16,1.28-0.45c0.38-0.28,0.66-0.67,0.8-1.12L20.62,9  C20.78,8.55,20.71,8.05,20.43,7.65L20.43,7.65L20.43,7.65z M9.57,7C9.6,6.9,9.66,6.82,9.74,6.77c0.08-0.07,0.18-0.1,0.29-0.1h6.33  c0.08-0.01,0.16,0.03,0.21,0.1c0.03,0.07,0.03,0.16,0,0.23l-0.22,0.67c-0.03,0.09-0.09,0.17-0.17,0.23c-0.08,0.06-0.17,0.1-0.27,0.1  H9.58C9.5,8,9.42,7.96,9.37,7.9c-0.03-0.07-0.03-0.16,0-0.23L9.57,7z M8.71,9.67C8.74,9.57,8.8,9.49,8.88,9.44  c0.08-0.06,0.17-0.1,0.27-0.1h6.33c0.08-0.01,0.16,0.03,0.21,0.1c0.03,0.07,0.03,0.16,0,0.23l-0.22,0.67  c-0.03,0.09-0.09,0.17-0.17,0.23c-0.08,0.06-0.17,0.1-0.27,0.1H8.72c-0.08,0.01-0.16-0.03-0.21-0.1c-0.03-0.07-0.03-0.16,0-0.23  L8.71,9.67z" style="fill: rgb(238, 238, 238);"/></g></svg>