<?xml version="1.0" standalone="no"?>
<svg version="1.1" preserveAspectRatio="none" viewBox="0 0 24 24" class="ng-element" data-id="3d31bce0c9d8d78460764c7e66de58f3" style="fill: rgb(238, 238, 238); width: 30px; height: 30px;" xmlns="http://www.w3.org/2000/svg"><g><path xmlns:default="http://www.w3.org/2000/svg" id="at" d="M14.11,10.74c0,0.73-0.15,1.45-0.44,2.12c-0.28,0.67-0.72,1.26-1.28,1.73c-0.51,0.44-1.16,0.69-1.83,0.69  c-0.59,0.03-1.17-0.2-1.57-0.64c-0.4-0.51-0.6-1.15-0.56-1.8c0-0.63,0.11-1.25,0.33-1.84c0.18-0.53,0.46-1.01,0.83-1.43  c0.32-0.36,0.71-0.66,1.15-0.88c0.39-0.21,0.81-0.32,1.25-0.34c0.6-0.04,1.17,0.2,1.57,0.65c0.4,0.5,0.6,1.12,0.56,1.76l0,0  L14.11,10.74z M19.99,12c0.09-2.15-0.71-4.25-2.21-5.79c-1.54-1.5-3.64-2.3-5.79-2.21c-1.07,0-2.12,0.22-3.1,0.64  C6.97,5.45,5.44,6.98,4.63,8.9c-0.85,1.98-0.85,4.23,0,6.21c0.8,1.92,2.33,3.45,4.26,4.25c0.98,0.42,2.03,0.64,3.1,0.64  c0.92,0,1.83-0.16,2.69-0.47c0.86-0.3,1.66-0.75,2.37-1.33c0.06-0.05,0.1-0.12,0.12-0.2c0.01-0.09-0.02-0.18-0.07-0.25l-0.43-0.51  c-0.05-0.07-0.13-0.12-0.22-0.12c-0.09-0.01-0.18,0.02-0.25,0.08c-1.9,1.57-4.52,1.96-6.8,1c-1.61-0.67-2.88-1.94-3.55-3.55  c-0.71-1.65-0.71-3.52,0-5.17C6.51,7.85,7.79,6.55,9.4,5.87c0.82-0.35,1.7-0.53,2.59-0.53c1.8-0.09,3.55,0.57,4.85,1.81  c1.24,1.3,1.9,3.05,1.81,4.85c0.01,0.49-0.07,0.97-0.25,1.43c-0.13,0.35-0.33,0.67-0.59,0.93c-0.24,0.22-0.51,0.39-0.8,0.52  c-0.24,0.11-0.5,0.2-0.76,0.25c-0.2,0.03-0.39,0.05-0.59,0.06c-0.17,0.02-0.33-0.03-0.46-0.14c-0.11-0.16-0.15-0.35-0.13-0.54  c0-0.17,0.02-0.34,0.05-0.5l1.25-6.39c0.03-0.05,0.03-0.12,0-0.17c-0.03-0.05-0.08-0.09-0.14-0.11h-1.24c-0.04,0-0.08,0.03-0.1,0.06  c-0.03,0.03-0.05,0.08-0.06,0.12L14.72,8.1v0.2c-0.27-0.43-0.65-0.78-1.1-1c-0.5-0.27-1.06-0.4-1.63-0.4  c-0.92,0-1.81,0.28-2.56,0.81C8.62,8.27,7.97,9.02,7.53,9.9c-0.46,0.93-0.7,1.96-0.69,3c-0.06,1.02,0.27,2.03,0.92,2.81  c0.68,0.69,1.63,1.06,2.6,1c0.63,0.01,1.26-0.15,1.81-0.46c0.53-0.29,1-0.68,1.37-1.15c0.02,0.31,0.14,0.61,0.34,0.86  c0.39,0.39,0.93,0.59,1.48,0.55h0.33c0.52-0.01,1.03-0.11,1.51-0.29c0.5-0.18,0.96-0.45,1.37-0.78c0.44-0.38,0.79-0.86,1-1.41  C19.85,13.39,19.99,12.7,19.99,12L19.99,12z" style="fill: rgb(238, 238, 238);"/></g></svg>