<?xml version="1.0" standalone="no"?>
<svg version="1.1" preserveAspectRatio="none" viewBox="0 0 24 24" class="ng-element" data-id="3b8ce09e6c31b0ae22db1af98bf8d1ec" style="fill: rgb(238, 238, 238); width: 30px; height: 30px;" xmlns="http://www.w3.org/2000/svg"><g><path xmlns:default="http://www.w3.org/2000/svg" id="list-ul" d="M6.09,15.91c-0.37-0.38-0.89-0.59-1.42-0.58c-1.1,0-2,0.9-2,2s0.9,2,2,2c1.1,0.01,2.01-0.88,2.01-1.99  C6.69,16.8,6.47,16.29,6.09,15.91z M6.09,10.58C5.72,10.2,5.2,9.99,4.67,10c-1.1,0-2,0.89-2,2c0,0.53,0.21,1.04,0.58,1.41  c0.37,0.38,0.89,0.6,1.42,0.59c1.1,0.01,2.01-0.88,2.01-1.99C6.69,11.47,6.47,10.96,6.09,10.58z M21.23,16.1  C21.17,16.04,21.09,16,21,16H8.34c-0.18,0.01-0.32,0.15-0.33,0.33v2c0.01,0.18,0.15,0.32,0.33,0.33H21  c0.18-0.01,0.32-0.15,0.33-0.33v-2C21.33,16.24,21.29,16.16,21.23,16.1z M6.09,5.25C5.72,4.87,5.2,4.66,4.67,4.67c-1.1,0-2,0.9-2,2  s0.9,2,2,2s2-0.9,2-2C6.68,6.14,6.47,5.62,6.09,5.25z M21.23,10.76c-0.06-0.06-0.14-0.1-0.23-0.1H8.34C8.15,10.66,8,10.81,8,11l0,0  v2c0.01,0.18,0.15,0.32,0.33,0.33H21c0.18-0.01,0.32-0.15,0.33-0.33v-2c0-0.09-0.04-0.17-0.1-0.23V10.76z M21.23,5.43  C21.17,5.37,21.09,5.34,21,5.34H8.34C8.16,5.34,8.01,5.49,8,5.67v2C8.01,7.85,8.16,8,8.34,8H21c0.18-0.01,0.32-0.15,0.33-0.33v-2  C21.33,5.58,21.29,5.5,21.23,5.43L21.23,5.43z" style="fill: rgb(238, 238, 238);"/></g></svg>