<?xml version="1.0" standalone="no"?>
<svg version="1.1" preserveAspectRatio="none" viewBox="0 0 24 24" class="ng-element" data-id="444c40b034127e7d194bc416b1760a6c" style="fill: rgb(238, 238, 238); width: 30px; height: 30px;" xmlns="http://www.w3.org/2000/svg"><g><path xmlns:default="http://www.w3.org/2000/svg" id="strikethrough" d="M3,11.99c-0.18-0.01-0.32,0.13-0.33,0.31c0,0.01,0,0.01,0,0.02v0.67c-0.01,0.18,0.13,0.32,0.31,0.33  c0.01,0,0.01,0,0.02,0h18c0.18,0.01,0.32-0.13,0.33-0.31c0-0.01,0-0.01,0-0.02v-0.67c0.01-0.18-0.13-0.32-0.31-0.33  c-0.01,0-0.01,0-0.02,0H3z M7.7,11.32h7.74c-0.32-0.2-0.66-0.38-1-0.54c-0.58-0.27-1.19-0.5-1.8-0.69c-1.06-0.22-2.05-0.68-2.9-1.34  c-0.42-0.37-0.67-0.9-0.69-1.46C9.04,6.7,9.3,6.14,9.75,5.77c0.53-0.43,1.21-0.65,1.89-0.61c0.83-0.01,1.63,0.34,2.19,0.95  c0.5,0.63,0.86,1.36,1.07,2.13h0.15l0.87,0.06h0.12c0.03-0.15,0.05-0.31,0.05-0.47c0-0.64-0.03-1.28-0.09-1.91  c-0.05-0.41-0.12-0.82-0.22-1.23c-0.6-0.21-1.22-0.37-1.84-0.5c-0.59-0.11-1.18-0.18-1.78-0.2c-1.49-0.11-2.96,0.37-4.1,1.33  c-0.9,0.82-1.41,2-1.4,3.22c0.01,0.7,0.18,1.38,0.5,2c0.15,0.29,0.33,0.57,0.53,0.83l0,0L7.7,11.32z M13,13.99  c0.51,0.18,0.99,0.43,1.43,0.74c0.5,0.4,0.81,0.99,0.84,1.63c-0.01,0.49-0.18,0.96-0.49,1.34c-0.32,0.42-0.76,0.74-1.27,0.9  c-0.46,0.18-0.95,0.27-1.45,0.28c-0.47,0.01-0.93-0.07-1.37-0.23c-0.4-0.13-0.77-0.33-1.09-0.59c-0.33-0.28-0.61-0.62-0.83-1  c-0.05-0.09-0.09-0.18-0.13-0.28L8.41,16.2C8.3,15.94,8.2,15.69,8.1,15.46L7,15.5v0.49v0.39c0,0.27,0,0.5,0,0.71  c0,0.33,0,0.87,0,1.62v0.14c-0.01,0.08,0.02,0.17,0.08,0.23c0.23,0.14,0.49,0.23,0.75,0.29l1.46,0.42c0.65,0.17,1.33,0.25,2,0.24  c0.71,0.01,1.42-0.06,2.11-0.22c0.57-0.16,1.11-0.41,1.6-0.73c0.4-0.25,0.78-0.53,1.13-0.84c0.32-0.31,0.57-0.67,0.74-1.08  c0.29-0.69,0.45-1.42,0.46-2.17c0.01-0.33-0.02-0.67-0.07-1H13z" style="fill: rgb(238, 238, 238);"/></g></svg>