<?xml version="1.0" standalone="no"?>
<svg version="1.1" preserveAspectRatio="none" viewBox="0 0 24 24" class="ng-element" data-id="a66b190b290dd5b2725b666272c07d77" style="fill: rgb(238, 238, 238); width: 30px; height: 30px;" xmlns="http://www.w3.org/2000/svg"><g><path xmlns:default="http://www.w3.org/2000/svg" id="header" d="M20.18,19.99c0.16,0,0.3-0.09,0.37-0.23c0.08-0.15,0.12-0.33,0.12-0.5c0.01-0.17-0.06-0.34-0.19-0.46  c-0.12-0.1-0.27-0.15-0.43-0.16h-0.56c-0.18-0.03-0.34-0.09-0.49-0.19c-0.31-0.42-0.43-0.95-0.33-1.46V7.17  c-0.11-0.58,0-1.18,0.33-1.68c0.14-0.08,0.3-0.12,0.46-0.13H20c0.15,0,0.3-0.05,0.42-0.15c0.13-0.12,0.2-0.29,0.18-0.46  c0-0.18-0.04-0.35-0.13-0.5c-0.06-0.15-0.21-0.25-0.37-0.26h-1.34h-1.34H16h-1.33c-0.16-0.01-0.32,0.08-0.39,0.23  c-0.09,0.15-0.13,0.32-0.13,0.5c-0.03,0.21,0.08,0.42,0.27,0.52c0.22,0.09,0.45,0.14,0.69,0.14c0.21-0.01,0.42,0.04,0.61,0.13  c0.34,0.48,0.47,1.09,0.36,1.67v3.33c0,0.15,0,0.26,0,0.33c-0.13,0.01-0.27,0.01-0.4,0h-7.3c-0.14,0.01-0.27,0.01-0.41,0  c0-0.07,0-0.18,0-0.33V7.17C7.86,6.58,7.99,5.98,8.33,5.5c0.14-0.08,0.29-0.13,0.45-0.14H9.3C9.45,5.35,9.59,5.3,9.7,5.21  c0.13-0.11,0.19-0.28,0.18-0.45c0-0.18-0.04-0.35-0.13-0.5C9.68,4.08,9.51,3.97,9.33,3.99H8H6.68H5.26H3.82  c-0.16,0-0.3,0.09-0.37,0.23c-0.08,0.15-0.12,0.33-0.12,0.5C3.32,4.89,3.39,5.07,3.52,5.19c0.12,0.1,0.27,0.15,0.43,0.15H4.5  c0.18,0,0.35,0.05,0.5,0.14c0.07,0.05,0.13,0.11,0.17,0.19c0.04,0.1,0.06,0.21,0.06,0.32c0,0.13,0.02,0.26,0.07,0.38  c0.01,0.15,0.01,0.29,0,0.44v0.4c0,0.09,0,0.22,0,0.38s0,0.25,0,0.27v9.06c0.1,0.52-0.01,1.05-0.3,1.49  c-0.13,0.08-0.28,0.14-0.44,0.16l-0.49,0.08c-0.14,0.02-0.27,0.08-0.37,0.18c-0.12,0.13-0.17,0.3-0.16,0.47  c0,0.17,0.04,0.33,0.13,0.47c0.06,0.13,0.19,0.21,0.33,0.22h1.32h1.33h1.44h1.45c0.19,0.04,0.38-0.05,0.46-0.23  c0.09-0.15,0.13-0.32,0.13-0.5c0.01-0.18-0.07-0.36-0.21-0.47c-0.14-0.1-0.3-0.16-0.47-0.16H8.86c-0.18-0.01-0.35-0.06-0.5-0.14  c-0.36-0.49-0.5-1.11-0.39-1.71v-3.89c0-0.15,0-0.25,0-0.32c0.18-0.02,0.35-0.02,0.53,0h7c0.17-0.02,0.35-0.02,0.52,0  c0,0.07,0,0.17,0,0.32v4.1c0.1,0.51-0.03,1.04-0.34,1.46c-0.15,0.08-0.3,0.14-0.47,0.16l-0.53,0.07c-0.15,0.01-0.3,0.08-0.41,0.18  c-0.13,0.13-0.19,0.3-0.18,0.48c0,0.17,0.05,0.33,0.14,0.47c0.08,0.14,0.23,0.22,0.39,0.21L16,19.99h1.37h1.39h1.38l0,0H20.18z" style="fill: rgb(238, 238, 238);"/></g></svg>