<?xml version="1.0" standalone="no"?>
<svg version="1.1" preserveAspectRatio="none" viewBox="0 0 24 24" class="ng-element" data-id="65e710ac83e548b865e101a7f6c69855" style="fill: rgb(238, 238, 238); width: 30px; height: 30px;" xmlns="http://www.w3.org/2000/svg"><g><path xmlns:default="http://www.w3.org/2000/svg" id="quote-right" d="M11.33,6.66c0-1.1-0.9-2-2-2h-4c-1.1,0-2,0.9-2,2v4c0,1.1,0.9,2,2,2h2.34c0.55,0,1,0.45,1,1v0.33  c-0.01,1.47-1.2,2.66-2.67,2.66H5.34c-0.37,0.01-0.66,0.3-0.67,0.67v1.33c0.01,0.37,0.3,0.66,0.67,0.67H6  c0.71,0,1.42-0.14,2.07-0.42c1.28-0.54,2.3-1.56,2.84-2.84c0.28-0.65,0.42-1.36,0.42-2.07V6.66L11.33,6.66z M20.66,6.66  c0-1.1-0.9-2-2-2h-4c-1.1,0-2,0.9-2,2v4c0,1.1,0.9,2,2,2H17c0.55,0,1,0.45,1,1v0.33c0,1.47-1.2,2.67-2.67,2.67h-0.66  c-0.37,0.01-0.66,0.3-0.67,0.67v1.33c0.01,0.37,0.3,0.66,0.67,0.67h0.67c0.71,0,1.42-0.14,2.07-0.42c1.28-0.54,2.3-1.56,2.84-2.84  c0.28-0.66,0.42-1.37,0.41-2.08V6.66L20.66,6.66z" style="fill: rgb(238, 238, 238);"/></g></svg>