<?xml version="1.0" standalone="no"?>
<svg version="1.1" preserveAspectRatio="none" viewBox="0 0 24 24" class="ng-element" data-id="89c8ffc7311e086d817e24f11b437159" style="fill: rgb(238, 238, 238); width: 30px; height: 30px;" xmlns="http://www.w3.org/2000/svg"><g><path xmlns:default="http://www.w3.org/2000/svg" id="key" d="M11.91,7.73c0,1.1-0.9,2-2,2c-0.31,0-0.62-0.06-0.9-0.2c0.13,0.27,0.2,0.56,0.2,0.86c0,1.1-0.9,2-2,2s-2-0.9-2-2  s0.9-2,2-2c0.3,0,0.59,0.07,0.86,0.2c-0.13-0.27-0.2-0.56-0.2-0.86c0-1.1,0.9-2,2-2s2,0.9,2,2l0,0L11.91,7.73z M20.47,14.63  c-0.2-0.23-0.45-0.5-0.76-0.81l-0.9-0.9l-0.8-0.82l-0.48-0.46c-0.06-0.06-0.15-0.1-0.24-0.1c-0.27,0.1-0.51,0.28-0.69,0.51  c-0.23,0.18-0.41,0.42-0.51,0.69c0.03,0.11,0.09,0.22,0.17,0.3c0.11,0.13,0.23,0.26,0.34,0.38l0.41,0.39l0.23,0.21l-1,1l-3.7-3.7  c0.86-1.08,1.34-2.42,1.36-3.8c0.1-2.02-1.46-3.73-3.48-3.83c-0.12-0.01-0.23-0.01-0.35,0c-1.16,0.02-2.29,0.36-3.26,1  C5.76,5.35,4.88,6.24,4.24,7.3c-0.64,0.97-0.98,2.1-1,3.26c-0.1,2.02,1.46,3.73,3.48,3.83c0.12,0.01,0.23,0.01,0.35,0  c1.39-0.02,2.73-0.51,3.81-1.37l7,7c0.19,0.19,0.44,0.29,0.71,0.29c0.66-0.09,1.17-0.62,1.23-1.29c0-0.27-0.1-0.52-0.29-0.71  l-2.29-2.29l1-1l0.26,0.27l0.4,0.42c0.12,0.12,0.25,0.23,0.38,0.34c0.08,0.08,0.19,0.14,0.3,0.17c0.27-0.1,0.51-0.28,0.69-0.51  c0.23-0.18,0.4-0.42,0.5-0.69C20.69,14.87,20.59,14.74,20.47,14.63z" style="fill: rgb(238, 238, 238);"/></g></svg>