<?xml version="1.0" standalone="no"?>
<svg version="1.1" preserveAspectRatio="none" viewBox="0 0 24 24" class="ng-element" data-id="00b0cf914c22693649bd6aa1f8f0c258" style="fill: rgb(238, 238, 238); width: 30px; height: 30px;" xmlns="http://www.w3.org/2000/svg"><g><path xmlns:default="http://www.w3.org/2000/svg" id="code" d="M8.43,16.59c0.13-0.13,0.14-0.33,0.01-0.47c0,0-0.01-0.01-0.01-0.01l-4.09-4.09l4.09-4.09  C8.56,7.8,8.57,7.6,8.44,7.46c0,0-0.01-0.01-0.01-0.01L7.91,6.93C7.78,6.8,7.58,6.79,7.44,6.92c0,0-0.01,0.01-0.01,0.01l-4.85,4.85  c-0.13,0.13-0.14,0.33-0.01,0.47c0,0,0.01,0.01,0.01,0.01l4.85,4.85c0.13,0.13,0.33,0.14,0.47,0.01c0,0,0.01-0.01,0.01-0.01  L8.43,16.59L8.43,16.59z M14.58,5.48c0.04-0.08,0.04-0.18,0-0.26c-0.04-0.1-0.13-0.17-0.23-0.2L13.7,4.84  c-0.08-0.03-0.16-0.03-0.24,0c-0.08,0.04-0.13,0.12-0.16,0.2L9.42,18.56c-0.04,0.08-0.04,0.18,0,0.26c0.04,0.08,0.12,0.13,0.2,0.16  l0.65,0.18c0.08,0.03,0.16,0.03,0.24,0c0.08-0.04,0.13-0.12,0.16-0.2L14.58,5.48L14.58,5.48z M21.42,12.26  c0.13-0.13,0.14-0.33,0.01-0.47c0,0-0.01-0.01-0.01-0.01l-4.85-4.85c-0.13-0.13-0.33-0.14-0.47-0.01c0,0-0.01,0.01-0.01,0.01  l-0.52,0.52c-0.13,0.13-0.14,0.33-0.01,0.47c0,0,0.01,0.01,0.01,0.01l4.09,4.09l-4.09,4.09c-0.13,0.13-0.14,0.33-0.01,0.47  c0,0,0.01,0.01,0.01,0.01l0.52,0.52c0.13,0.13,0.33,0.14,0.47,0.01c0,0,0.01-0.01,0.01-0.01L21.42,12.26L21.42,12.26z" style="fill: rgb(238, 238, 238);"/></g></svg>