<?xml version="1.0" standalone="no"?>
<svg version="1.1" preserveAspectRatio="none" viewBox="0 0 24 24" class="ng-element" data-id="82b1356d0c866ba6663176dcde8dc8cb" style="fill: rgb(238, 238, 238); width: 30px; height: 30px;" xmlns="http://www.w3.org/2000/svg"><g><path xmlns:default="http://www.w3.org/2000/svg" id="file-image-o" d="M16,3.38c-0.23-0.22-0.5-0.39-0.79-0.5c-0.29-0.13-0.6-0.2-0.92-0.21H5c-0.55,0-1,0.45-1,1v16.66  c0,0.55,0.45,1,1,1h14c0.55,0,1-0.45,1-1v-12c-0.01-0.32-0.08-0.63-0.21-0.92c-0.11-0.29-0.28-0.56-0.5-0.79L16,3.38z M15.05,4.32  l3.26,3.26c0.11,0.13,0.19,0.27,0.23,0.43h-3.87V4.09c0.15,0.05,0.3,0.12,0.42,0.23H15.05z M18.66,20H5.34V4h8v4.34  c0,0.55,0.45,1,1,1h4.33V20l0,0H18.66z M14,12l-4,4l-1.33-1.33l-2,2v2h10.66v-3.34L14,12z M10.09,12.75  c0.78-0.78,0.79-2.04,0.01-2.83C9.72,9.54,9.21,9.33,8.67,9.33c-1.1,0-2,0.89-2,2c0,0.53,0.21,1.04,0.58,1.41  c0.78,0.78,2.04,0.79,2.83,0.01c0,0,0,0,0,0H10.09z" style="fill: rgb(238, 238, 238);"/></g></svg>