<?xml version="1.0" standalone="no"?>
<svg version="1.1" preserveAspectRatio="none" viewBox="0 0 24 24" class="ng-element" data-id="80201c960d37cc7f6c979b1ad00e5828" style="fill: rgb(255, 255, 255); width: 23px; height: 23px;" xmlns="http://www.w3.org/2000/svg"><g><path xmlns:default="http://www.w3.org/2000/svg" id="refresh" d="M19.74,13.67c-0.01-0.18-0.15-0.32-0.33-0.33h-2c-0.15,0-0.28,0.1-0.31,0.24c-0.16,0.42-0.35,0.82-0.55,1.22  c-0.97,1.58-2.7,2.54-4.55,2.53c-0.67,0.02-1.33-0.1-1.95-0.33c-0.62-0.25-1.19-0.61-1.68-1.06l1.43-1.47  c0.25-0.27,0.24-0.69-0.03-0.95c-0.12-0.11-0.28-0.18-0.44-0.18H4.67C4.31,13.34,4.01,13.64,4,14v4.66c0,0.36,0.29,0.66,0.65,0.67  c0.18,0,0.35-0.07,0.48-0.2l1.34-1.34c0.73,0.7,1.59,1.25,2.53,1.63c0.95,0.39,1.97,0.59,3,0.58c1.82,0.04,3.59-0.58,5-1.73  c1.41-1.15,2.4-2.74,2.79-4.52c0-0.02,0-0.05,0-0.07l0,0L19.74,13.67z M20,5.34c0-0.36-0.29-0.66-0.65-0.67  c-0.18,0-0.35,0.07-0.48,0.2l-1.36,1.34c-0.73-0.7-1.58-1.25-2.51-1.63C14.05,4.19,13.03,3.99,12,4c-1.82-0.03-3.59,0.59-5,1.74  c-1.42,1.15-2.41,2.74-2.81,4.52v0.07c0.01,0.18,0.15,0.32,0.33,0.33H6.6c0.15,0,0.28-0.1,0.31-0.24C7.07,10,7.26,9.6,7.46,9.2  C8.43,7.62,10.15,6.66,12,6.67c1.35-0.02,2.65,0.5,3.63,1.43L14.2,9.53c-0.25,0.27-0.24,0.69,0.03,0.95  c0.12,0.11,0.28,0.18,0.44,0.18h4.66c0.36-0.01,0.66-0.3,0.67-0.66V5.34L20,5.34z" style="fill: rgb(255, 255, 255);"/></g></svg>