<?xml version="1.0" standalone="no"?>
<svg version="1.1" preserveAspectRatio="none" viewBox="0 0 24 24" class="ng-element" data-id="5f6b55f5a0c2e4791cbdf776cf47749c" style="fill: rgb(238, 238, 238); width: 30px; height: 30px;" xmlns="http://www.w3.org/2000/svg"><g><path xmlns:default="http://www.w3.org/2000/svg" id="list-ol" d="M6.56,19.48c0.01-0.33-0.1-0.66-0.31-0.92c-0.21-0.26-0.51-0.44-0.84-0.51l1-1.2v-0.86H2.93v1.58H4v-0.58h1  c-0.13,0.13-0.26,0.26-0.39,0.4c-0.13,0.14-0.27,0.33-0.44,0.56L3.83,18.4l0.31,0.59c0.73-0.05,1.09,0.14,1.09,0.58  c0,0.17-0.09,0.33-0.23,0.42c-0.16,0.1-0.34,0.16-0.53,0.15c-0.41-0.01-0.81-0.18-1.1-0.47l-0.59,0.92  c0.48,0.47,1.12,0.72,1.79,0.69C5.09,21.3,5.6,21.13,6,20.79c0.38-0.33,0.59-0.81,0.57-1.31l0,0H6.56z M6.56,12.95H5.49v0.62H4.17  c0.03-0.24,0.16-0.45,0.36-0.58c0.25-0.2,0.51-0.38,0.79-0.53c0.3-0.17,0.56-0.4,0.78-0.67c0.24-0.28,0.36-0.63,0.35-1  c0.02-0.45-0.17-0.88-0.52-1.17C5.57,9.33,5.11,9.18,4.65,9.19c-0.39,0-0.77,0.1-1.1,0.3c-0.33,0.2-0.58,0.48-0.74,0.83l0.89,0.67  c0.15-0.34,0.47-0.57,0.84-0.6c0.15-0.01,0.3,0.04,0.41,0.14c0.1,0.11,0.16,0.25,0.15,0.4C5.09,11.12,5,11.29,4.86,11.4  c-0.18,0.17-0.38,0.32-0.59,0.45C4.04,12,3.81,12.16,3.58,12.34c-0.24,0.2-0.44,0.44-0.59,0.71c-0.17,0.31-0.25,0.65-0.24,1  c0.01,0.19,0.03,0.38,0.06,0.56h3.77v-1.62l0,0L6.56,12.95z M21.13,16.04c-0.06-0.06-0.14-0.1-0.23-0.1H8.26  c-0.18-0.01-0.32,0.13-0.33,0.31c0,0.01,0,0.01,0,0.02v2c0.01,0.18,0.15,0.32,0.33,0.33h12.66c0.18-0.01,0.32-0.15,0.33-0.33v-2  c0-0.09-0.04-0.17-0.1-0.23H21.13z M6.59,6.91H5.47v-4.2H4.36L2.95,3.99l0.74,0.83c0.2-0.16,0.38-0.35,0.52-0.56l0,0v0.12  c0,0.29,0,0.71,0,1.27s0,0.98,0,1.27H3.1v1.07h3.49v-1l0,0V6.91z M21.25,10.91c-0.01-0.18-0.15-0.32-0.33-0.33H8.26  c-0.18-0.01-0.32,0.13-0.33,0.31c0,0.01,0,0.01,0,0.02v2c0.01,0.18,0.15,0.32,0.33,0.33h12.66c0.15,0,0.29-0.1,0.33-0.25v-2l0,0  V10.91z M21.15,5.35c-0.06-0.06-0.14-0.1-0.23-0.1H8.26C8.08,5.26,7.93,5.4,7.93,5.58v2c-0.04,0.18,0.08,0.36,0.26,0.4  c0.02,0,0.04,0.01,0.07,0.01h12.66c0.18-0.01,0.32-0.15,0.33-0.33v-2c0.01-0.1-0.02-0.21-0.1-0.28V5.35z" style="fill: rgb(238, 238, 238);"/></g></svg>